<svg xmlns="http://www.w3.org/2000/svg" viewBox="0 0 1500 500" width="1500" height="500" role="img" aria-label="Tapture">
  <title>Tapture &#8212; wide banner, 1500 by 500</title>
  <defs>
    <linearGradient id="tapture-bg" x1="0" y1="0" x2="1" y2="1">
      <stop offset="0" stop-color="#2662EB"/>
      <stop offset="1" stop-color="#0F215F"/>
    </linearGradient>
  </defs>
  <rect x="0" y="0" width="1500" height="500" rx="0" fill="url(#tapture-bg)"/>
  <path d="M 1094.93 15.28 A 95.35 95.35 0 0 1 1190.28 -80.07" fill="none" stroke="#FFFFFF" stroke-width="89.85" stroke-linecap="round" stroke-opacity="0.1"/>
  <path d="M 1094.93 15.28 L 1094.93 158.31" fill="none" stroke="#FFFFFF" stroke-width="89.85" stroke-linecap="round" stroke-opacity="0.1"/>
  <path d="M 1190.28 -80.07 L 1333.31 -80.07" fill="none" stroke="#FFFFFF" stroke-width="89.85" stroke-linecap="round" stroke-opacity="0.1"/>
  <path d="M 1659.72 -80.07 A 95.35 95.35 0 0 1 1755.07 15.28" fill="none" stroke="#FFFFFF" stroke-width="89.85" stroke-linecap="round" stroke-opacity="0.1"/>
  <path d="M 1659.72 -80.07 L 1516.69 -80.07" fill="none" stroke="#FFFFFF" stroke-width="89.85" stroke-linecap="round" stroke-opacity="0.1"/>
  <path d="M 1755.07 15.28 L 1755.07 158.31" fill="none" stroke="#FFFFFF" stroke-width="89.85" stroke-linecap="round" stroke-opacity="0.1"/>
  <path d="M 1755.07 484.72 A 95.35 95.35 0 0 1 1659.72 580.07" fill="none" stroke="#FFFFFF" stroke-width="89.85" stroke-linecap="round" stroke-opacity="0.1"/>
  <path d="M 1755.07 484.72 L 1755.07 341.69" fill="none" stroke="#FFFFFF" stroke-width="89.85" stroke-linecap="round" stroke-opacity="0.1"/>
  <path d="M 1659.72 580.07 L 1516.69 580.07" fill="none" stroke="#FFFFFF" stroke-width="89.85" stroke-linecap="round" stroke-opacity="0.1"/>
  <path d="M 1190.28 580.07 A 95.35 95.35 0 0 1 1094.93 484.72" fill="none" stroke="#FFFFFF" stroke-width="89.85" stroke-linecap="round" stroke-opacity="0.1"/>
  <path d="M 1190.28 580.07 L 1333.31 580.07" fill="none" stroke="#FFFFFF" stroke-width="89.85" stroke-linecap="round" stroke-opacity="0.1"/>
  <path d="M 1094.93 484.72 L 1094.93 341.69" fill="none" stroke="#FFFFFF" stroke-width="89.85" stroke-linecap="round" stroke-opacity="0.1"/>
  <circle cx="1425" cy="250" r="203.55" fill="none" stroke="#FFFFFF" stroke-width="40.34" stroke-opacity="0.1"/>
  <rect x="1324.14" y="149.14" width="201.71" height="201.71" rx="58.68" fill="#FFFFFF" fill-opacity="0.1"/>
  <path d="M 123.25 193.85 A 22.81 22.81 0 0 1 146.06 171.03" fill="none" stroke="#FFFFFF" stroke-width="21.5" stroke-linecap="round"/>
  <path d="M 123.25 193.85 L 123.25 228.06" fill="none" stroke="#FFFFFF" stroke-width="21.5" stroke-linecap="round"/>
  <path d="M 146.06 171.03 L 180.28 171.03" fill="none" stroke="#FFFFFF" stroke-width="21.5" stroke-linecap="round"/>
  <path d="M 258.37 171.03 A 22.81 22.81 0 0 1 281.18 193.85" fill="none" stroke="#FFFFFF" stroke-width="21.5" stroke-linecap="round"/>
  <path d="M 258.37 171.03 L 224.15 171.03" fill="none" stroke="#FFFFFF" stroke-width="21.5" stroke-linecap="round"/>
  <path d="M 281.18 193.85 L 281.18 228.06" fill="none" stroke="#FFFFFF" stroke-width="21.5" stroke-linecap="round"/>
  <path d="M 281.18 306.15 A 22.81 22.81 0 0 1 258.37 328.97" fill="none" stroke="#FFFFFF" stroke-width="21.5" stroke-linecap="round"/>
  <path d="M 281.18 306.15 L 281.18 271.94" fill="none" stroke="#FFFFFF" stroke-width="21.5" stroke-linecap="round"/>
  <path d="M 258.37 328.97 L 224.15 328.97" fill="none" stroke="#FFFFFF" stroke-width="21.5" stroke-linecap="round"/>
  <path d="M 146.06 328.97 A 22.81 22.81 0 0 1 123.25 306.15" fill="none" stroke="#FFFFFF" stroke-width="21.5" stroke-linecap="round"/>
  <path d="M 146.06 328.97 L 180.28 328.97" fill="none" stroke="#FFFFFF" stroke-width="21.5" stroke-linecap="round"/>
  <path d="M 123.25 306.15 L 123.25 271.94" fill="none" stroke="#FFFFFF" stroke-width="21.5" stroke-linecap="round"/>
  <circle cx="202.22" cy="250" r="48.7" fill="none" stroke="#FFFFFF" stroke-width="9.65"/>
  <rect x="178.09" y="225.87" width="48.26" height="48.26" rx="14.04" fill="#FFFFFF"/>
  <path d="M 350.36 209.75 L 406.88 209.75" fill="none" stroke="#FFFFFF" stroke-width="12.8" stroke-linecap="round"/>
  <path d="M 378.62 209.75 L 378.62 290.25" fill="none" stroke="#FFFFFF" stroke-width="12.8" stroke-linecap="round"/>
  <circle cx="441.27" cy="263.33" r="26.92" fill="none" stroke="#FFFFFF" stroke-width="12.8"/>
  <path d="M 468.19 236.4 L 468.19 290.25" fill="none" stroke="#FFFFFF" stroke-width="12.8" stroke-linecap="round"/>
  <circle cx="515.65" cy="263.33" r="26.92" fill="none" stroke="#FFFFFF" stroke-width="12.8"/>
  <path d="M 488.72 236.4 L 488.72 324.64" fill="none" stroke="#FFFFFF" stroke-width="12.8" stroke-linecap="round"/>
  <path d="M 570.56 217.74 L 570.56 290.25" fill="none" stroke="#FFFFFF" stroke-width="12.8" stroke-linecap="round"/>
  <path d="M 557.23 230.01 L 587.89 230.01" fill="none" stroke="#FFFFFF" stroke-width="12.8" stroke-linecap="round"/>
  <path d="M 603.35 236.4 L 603.35 263.33" fill="none" stroke="#FFFFFF" stroke-width="12.8" stroke-linecap="round"/>
  <path d="M 657.2 263.33 A 26.92 26.92 0 0 1 603.35 263.33" fill="none" stroke="#FFFFFF" stroke-width="12.8" stroke-linecap="round"/>
  <path d="M 657.2 236.4 L 657.2 290.25" fill="none" stroke="#FFFFFF" stroke-width="12.8" stroke-linecap="round"/>
  <path d="M 674.8 236.4 L 674.8 290.25" fill="none" stroke="#FFFFFF" stroke-width="12.8" stroke-linecap="round"/>
  <path d="M 674.8 259.73 A 23.33 23.33 0 0 1 698.12 236.4" fill="none" stroke="#FFFFFF" stroke-width="12.8" stroke-linecap="round"/>
  <path d="M 712.25 263.33 L 766.1 263.33" fill="none" stroke="#FFFFFF" stroke-width="12.8" stroke-linecap="round"/>
  <path d="M 759.8 280.64 A 26.92 26.92 0 1 1 766.1 263.33" fill="none" stroke="#FFFFFF" stroke-width="12.8" stroke-linecap="round"/>
</svg>
